<?xml version="1.0" encoding="UTF-8" standalone="no"?>
<!DOCTYPE svg PUBLIC "-//W3C//DTD SVG 1.1//EN"
 "http://www.w3.org/Graphics/SVG/1.1/DTD/svg11.dtd">
<!-- Generated by graphviz version 2.43.0 (0)
 -->
<!-- Title: RhythmMorphologyFusionNet Pages: 1 -->
<svg width="841pt" height="1068pt"
 viewBox="0.00 0.00 841.00 1068.00" xmlns="http://www.w3.org/2000/svg" xmlns:xlink="http://www.w3.org/1999/xlink">
<g id="graph0" class="graph" transform="scale(1 1) rotate(0) translate(18 1050)">
<title>RhythmMorphologyFusionNet</title>
<polygon fill="white" stroke="transparent" points="-18,18 -18,-1050 823,-1050 823,18 -18,18"/>
<!-- input -->
<g id="node1" class="node">
<title>input</title>
<path fill="#e0f2fe" stroke="#334155" d="M363,-1032C363,-1032 228,-1032 228,-1032 222,-1032 216,-1026 216,-1020 216,-1020 216,-1008 216,-1008 216,-1002 222,-996 228,-996 228,-996 363,-996 363,-996 369,-996 375,-1002 375,-1008 375,-1008 375,-1020 375,-1020 375,-1026 369,-1032 363,-1032"/>
<text text-anchor="middle" x="295.5" y="-1017.4" font-family="Helvetica,sans-Serif" font-size="12.00" fill="#0f172a">30 s PPG segment</text>
<text text-anchor="middle" x="295.5" y="-1004.4" font-family="Helvetica,sans-Serif" font-size="12.00" fill="#0f172a">3750 samples at 125 Hz</text>
</g>
<!-- preprocess -->
<g id="node2" class="node">
<title>preprocess</title>
<path fill="#e0f2fe" stroke="#334155" d="M354.5,-955C354.5,-955 236.5,-955 236.5,-955 230.5,-955 224.5,-949 224.5,-943 224.5,-943 224.5,-931 224.5,-931 224.5,-925 230.5,-919 236.5,-919 236.5,-919 354.5,-919 354.5,-919 360.5,-919 366.5,-925 366.5,-931 366.5,-931 366.5,-943 366.5,-943 366.5,-949 360.5,-955 354.5,-955"/>
<text text-anchor="middle" x="295.5" y="-940.4" font-family="Helvetica,sans-Serif" font-size="12.00" fill="#0f172a">Band&#45;pass filtering</text>
<text text-anchor="middle" x="295.5" y="-927.4" font-family="Helvetica,sans-Serif" font-size="12.00" fill="#0f172a">z&#45;score normalisation</text>
</g>
<!-- input&#45;&gt;preprocess -->
<g id="edge1" class="edge">
<title>input&#45;&gt;preprocess</title>
<path fill="none" stroke="#475569" d="M295.5,-995.75C295.5,-995.75 295.5,-962.12 295.5,-962.12"/>
<polygon fill="#475569" stroke="#475569" points="297.95,-962.12 295.5,-955.12 293.05,-962.12 297.95,-962.12"/>
</g>
<!-- sqi -->
<g id="node3" class="node">
<title>sqi</title>
<path fill="#fef3c7" stroke="#334155" d="M284.21,-873.94C284.21,-873.94 206.79,-846.06 206.79,-846.06 201.15,-844.03 201.15,-839.97 206.79,-837.94 206.79,-837.94 284.21,-810.06 284.21,-810.06 289.85,-808.03 301.15,-808.03 306.79,-810.06 306.79,-810.06 384.21,-837.94 384.21,-837.94 389.85,-839.97 389.85,-844.03 384.21,-846.06 384.21,-846.06 306.79,-873.94 306.79,-873.94 301.15,-875.97 289.85,-875.97 284.21,-873.94"/>
<text text-anchor="middle" x="295.5" y="-845.4" font-family="Helvetica,sans-Serif" font-size="12.00" fill="#0f172a">SQI v2 gate</text>
<text text-anchor="middle" x="295.5" y="-832.4" font-family="Helvetica,sans-Serif" font-size="12.00" fill="#0f172a">accept / reject</text>
</g>
<!-- preprocess&#45;&gt;sqi -->
<g id="edge2" class="edge">
<title>preprocess&#45;&gt;sqi</title>
<path fill="none" stroke="#475569" d="M295.5,-918.68C295.5,-918.68 295.5,-885.36 295.5,-885.36"/>
<polygon fill="#475569" stroke="#475569" points="297.95,-885.36 295.5,-878.36 293.05,-885.36 297.95,-885.36"/>
</g>
<!-- rejected -->
<g id="node4" class="node">
<title>rejected</title>
<path fill="#fee2e2" stroke="#334155" d="M313,-755C313,-755 208,-755 208,-755 202,-755 196,-749 196,-743 196,-743 196,-731 196,-731 196,-725 202,-719 208,-719 208,-719 313,-719 313,-719 319,-719 325,-725 325,-731 325,-731 325,-743 325,-743 325,-749 319,-755 313,-755"/>
<text text-anchor="middle" x="260.5" y="-740.4" font-family="Helvetica,sans-Serif" font-size="12.00" fill="#0f172a">No&#45;call / excluded</text>
<text text-anchor="middle" x="260.5" y="-727.4" font-family="Helvetica,sans-Serif" font-size="12.00" fill="#0f172a">unreliable segment</text>
</g>
<!-- sqi&#45;&gt;rejected -->
<g id="edge3" class="edge">
<title>sqi&#45;&gt;rejected</title>
<path fill="none" stroke="#475569" d="M260.5,-818.44C260.5,-818.44 260.5,-762.27 260.5,-762.27"/>
<polygon fill="#475569" stroke="#475569" points="262.95,-762.27 260.5,-755.27 258.05,-762.27 262.95,-762.27"/>
<text text-anchor="middle" x="280.5" y="-778" font-family="Helvetica,sans-Serif" font-size="10.00" fill="#334155">rejected</text>
</g>
<!-- waveform -->
<g id="node5" class="node">
<title>waveform</title>
<path fill="#e0f2fe" stroke="#334155" d="M518.5,-755C518.5,-755 362.5,-755 362.5,-755 356.5,-755 350.5,-749 350.5,-743 350.5,-743 350.5,-731 350.5,-731 350.5,-725 356.5,-719 362.5,-719 362.5,-719 518.5,-719 518.5,-719 524.5,-719 530.5,-725 530.5,-731 530.5,-731 530.5,-743 530.5,-743 530.5,-749 524.5,-755 518.5,-755"/>
<text text-anchor="middle" x="440.5" y="-740.4" font-family="Helvetica,sans-Serif" font-size="12.00" fill="#0f172a">Accepted filtered waveform</text>
<text text-anchor="middle" x="440.5" y="-727.4" font-family="Helvetica,sans-Serif" font-size="12.00" fill="#0f172a">x</text>
</g>
<!-- sqi&#45;&gt;waveform -->
<g id="edge4" class="edge">
<title>sqi&#45;&gt;waveform</title>
<path fill="none" stroke="#475569" d="M373,-833.76C373,-833.76 373,-762.24 373,-762.24"/>
<polygon fill="#475569" stroke="#475569" points="375.45,-762.24 373,-755.24 370.55,-762.24 375.45,-762.24"/>
<text text-anchor="middle" x="408" y="-778" font-family="Helvetica,sans-Serif" font-size="10.00" fill="#334155">accepted</text>
</g>
<!-- feature_vector -->
<g id="node6" class="node">
<title>feature_vector</title>
<path fill="#e0f2fe" stroke="#334155" d="M355,-678C355,-678 138,-678 138,-678 132,-678 126,-672 126,-666 126,-666 126,-654 126,-654 126,-648 132,-642 138,-642 138,-642 355,-642 355,-642 361,-642 367,-648 367,-654 367,-654 367,-666 367,-666 367,-672 361,-678 355,-678"/>
<text text-anchor="middle" x="246.5" y="-663.4" font-family="Helvetica,sans-Serif" font-size="12.00" fill="#0f172a">Peak detection + SQI/rhythm features</text>
<text text-anchor="middle" x="246.5" y="-650.4" font-family="Helvetica,sans-Serif" font-size="12.00" fill="#0f172a">17&#45;d vector f</text>
</g>
<!-- waveform&#45;&gt;feature_vector -->
<g id="edge5" class="edge">
<title>waveform&#45;&gt;feature_vector</title>
<path fill="none" stroke="#475569" d="M358.75,-718.75C358.75,-718.75 358.75,-685.12 358.75,-685.12"/>
<polygon fill="#475569" stroke="#475569" points="361.2,-685.12 358.75,-678.12 356.3,-685.12 361.2,-685.12"/>
</g>
<!-- time_branch -->
<g id="node7" class="node">
<title>time_branch</title>
<path fill="#dcfce7" stroke="#334155" d="M565,-601C565,-601 316,-601 316,-601 310,-601 304,-595 304,-589 304,-589 304,-551 304,-551 304,-545 310,-539 316,-539 316,-539 565,-539 565,-539 571,-539 577,-545 577,-551 577,-551 577,-589 577,-589 577,-595 571,-601 565,-601"/>
<text text-anchor="middle" x="440.5" y="-586.4" font-family="Helvetica,sans-Serif" font-size="12.00" fill="#0f172a">Time&#45;domain morphology branch</text>
<text text-anchor="middle" x="440.5" y="-573.4" font-family="Helvetica,sans-Serif" font-size="12.00" fill="#0f172a">Conv1D stem &#45;&gt; multi&#45;scale residual blocks</text>
<text text-anchor="middle" x="440.5" y="-560.4" font-family="Helvetica,sans-Serif" font-size="12.00" fill="#0f172a">2&#45;layer Transformer + attention pooling</text>
<text text-anchor="middle" x="440.5" y="-547.4" font-family="Helvetica,sans-Serif" font-size="12.00" fill="#0f172a">64&#45;d time embedding</text>
</g>
<!-- waveform&#45;&gt;time_branch -->
<g id="edge6" class="edge">
<title>waveform&#45;&gt;time_branch</title>
<path fill="none" stroke="#475569" d="M448.75,-718.81C448.75,-718.81 448.75,-608.21 448.75,-608.21"/>
<polygon fill="#475569" stroke="#475569" points="451.2,-608.21 448.75,-601.21 446.3,-608.21 451.2,-608.21"/>
</g>
<!-- spec_branch -->
<g id="node8" class="node">
<title>spec_branch</title>
<path fill="#ede9fe" stroke="#334155" d="M793,-601C793,-601 614,-601 614,-601 608,-601 602,-595 602,-589 602,-589 602,-551 602,-551 602,-545 608,-539 614,-539 614,-539 793,-539 793,-539 799,-539 805,-545 805,-551 805,-551 805,-589 805,-589 805,-595 799,-601 793,-601"/>
<text text-anchor="middle" x="703.5" y="-586.4" font-family="Helvetica,sans-Serif" font-size="12.00" fill="#0f172a">Spectral branch</text>
<text text-anchor="middle" x="703.5" y="-573.4" font-family="Helvetica,sans-Serif" font-size="12.00" fill="#0f172a">log&#45;magnitude STFT &#45;&gt; 2D CNN</text>
<text text-anchor="middle" x="703.5" y="-560.4" font-family="Helvetica,sans-Serif" font-size="12.00" fill="#0f172a">adaptive pooling</text>
<text text-anchor="middle" x="703.5" y="-547.4" font-family="Helvetica,sans-Serif" font-size="12.00" fill="#0f172a">64&#45;d spectral embedding</text>
</g>
<!-- waveform&#45;&gt;spec_branch -->
<g id="edge7" class="edge">
<title>waveform&#45;&gt;spec_branch</title>
<path fill="none" stroke="#475569" d="M530.64,-737C606.77,-737 703.5,-737 703.5,-737 703.5,-737 703.5,-608.02 703.5,-608.02"/>
<polygon fill="#475569" stroke="#475569" points="705.95,-608.02 703.5,-601.02 701.05,-608.02 705.95,-608.02"/>
</g>
<!-- feat_branch -->
<g id="node9" class="node">
<title>feat_branch</title>
<path fill="#ffedd5" stroke="#334155" d="M267,-594.5C267,-594.5 12,-594.5 12,-594.5 6,-594.5 0,-588.5 0,-582.5 0,-582.5 0,-557.5 0,-557.5 0,-551.5 6,-545.5 12,-545.5 12,-545.5 267,-545.5 267,-545.5 273,-545.5 279,-551.5 279,-557.5 279,-557.5 279,-582.5 279,-582.5 279,-588.5 273,-594.5 267,-594.5"/>
<text text-anchor="middle" x="139.5" y="-579.9" font-family="Helvetica,sans-Serif" font-size="12.00" fill="#0f172a">Feature branch</text>
<text text-anchor="middle" x="139.5" y="-566.9" font-family="Helvetica,sans-Serif" font-size="12.00" fill="#0f172a">MLP + LayerNorm over rhythm/SQI features</text>
<text text-anchor="middle" x="139.5" y="-553.9" font-family="Helvetica,sans-Serif" font-size="12.00" fill="#0f172a">64&#45;d feature embedding</text>
</g>
<!-- feature_vector&#45;&gt;feat_branch -->
<g id="edge8" class="edge">
<title>feature_vector&#45;&gt;feat_branch</title>
<path fill="none" stroke="#475569" d="M202.5,-641.79C202.5,-641.79 202.5,-601.67 202.5,-601.67"/>
<polygon fill="#475569" stroke="#475569" points="204.95,-601.67 202.5,-594.67 200.05,-601.67 204.95,-601.67"/>
</g>
<!-- concat -->
<g id="node10" class="node">
<title>concat</title>
<path fill="#f1f5f9" stroke="#334155" d="M535.5,-498C535.5,-498 345.5,-498 345.5,-498 339.5,-498 333.5,-492 333.5,-486 333.5,-486 333.5,-474 333.5,-474 333.5,-468 339.5,-462 345.5,-462 345.5,-462 535.5,-462 535.5,-462 541.5,-462 547.5,-468 547.5,-474 547.5,-474 547.5,-486 547.5,-486 547.5,-492 541.5,-498 535.5,-498"/>
<text text-anchor="middle" x="440.5" y="-483.4" font-family="Helvetica,sans-Serif" font-size="12.00" fill="#0f172a">Concatenate branch embeddings</text>
<text text-anchor="middle" x="440.5" y="-470.4" font-family="Helvetica,sans-Serif" font-size="12.00" fill="#0f172a">192&#45;d vector</text>
</g>
<!-- time_branch&#45;&gt;concat -->
<g id="edge9" class="edge">
<title>time_branch&#45;&gt;concat</title>
<path fill="none" stroke="#475569" d="M440.5,-538.77C440.5,-538.77 440.5,-505.05 440.5,-505.05"/>
<polygon fill="#475569" stroke="#475569" points="442.95,-505.05 440.5,-498.05 438.05,-505.05 442.95,-505.05"/>
</g>
<!-- spec_branch&#45;&gt;concat -->
<g id="edge10" class="edge">
<title>spec_branch&#45;&gt;concat</title>
<path fill="none" stroke="#475569" d="M703.5,-538.77C703.5,-512.78 703.5,-480 703.5,-480 703.5,-480 554.85,-480 554.85,-480"/>
<polygon fill="#475569" stroke="#475569" points="554.85,-477.55 547.85,-480 554.85,-482.45 554.85,-477.55"/>
</g>
<!-- feat_branch&#45;&gt;concat -->
<g id="edge11" class="edge">
<title>feat_branch&#45;&gt;concat</title>
<path fill="none" stroke="#475569" d="M139.5,-545.41C139.5,-518.76 139.5,-480 139.5,-480 139.5,-480 326.11,-480 326.11,-480"/>
<polygon fill="#475569" stroke="#475569" points="326.11,-482.45 333.11,-480 326.11,-477.55 326.11,-482.45"/>
</g>
<!-- gate -->
<g id="node11" class="node">
<title>gate</title>
<path fill="#f1f5f9" stroke="#334155" d="M495.5,-421C495.5,-421 385.5,-421 385.5,-421 379.5,-421 373.5,-415 373.5,-409 373.5,-409 373.5,-397 373.5,-397 373.5,-391 379.5,-385 385.5,-385 385.5,-385 495.5,-385 495.5,-385 501.5,-385 507.5,-391 507.5,-397 507.5,-397 507.5,-409 507.5,-409 507.5,-415 501.5,-421 495.5,-421"/>
<text text-anchor="middle" x="440.5" y="-399.9" font-family="Helvetica,sans-Serif" font-size="12.00" fill="#0f172a">Learned fusion gate</text>
</g>
<!-- concat&#45;&gt;gate -->
<g id="edge12" class="edge">
<title>concat&#45;&gt;gate</title>
<path fill="none" stroke="#475569" d="M440.5,-461.75C440.5,-461.75 440.5,-428.12 440.5,-428.12"/>
<polygon fill="#475569" stroke="#475569" points="442.95,-428.12 440.5,-421.12 438.05,-428.12 442.95,-428.12"/>
</g>
<!-- classifier -->
<g id="node12" class="node">
<title>classifier</title>
<path fill="#f1f5f9" stroke="#334155" d="M479.5,-344C479.5,-344 401.5,-344 401.5,-344 395.5,-344 389.5,-338 389.5,-332 389.5,-332 389.5,-320 389.5,-320 389.5,-314 395.5,-308 401.5,-308 401.5,-308 479.5,-308 479.5,-308 485.5,-308 491.5,-314 491.5,-320 491.5,-320 491.5,-332 491.5,-332 491.5,-338 485.5,-344 479.5,-344"/>
<text text-anchor="middle" x="440.5" y="-329.4" font-family="Helvetica,sans-Serif" font-size="12.00" fill="#0f172a">Classifier head</text>
<text text-anchor="middle" x="440.5" y="-316.4" font-family="Helvetica,sans-Serif" font-size="12.00" fill="#0f172a">AF logit</text>
</g>
<!-- gate&#45;&gt;classifier -->
<g id="edge13" class="edge">
<title>gate&#45;&gt;classifier</title>
<path fill="none" stroke="#475569" d="M440.5,-384.75C440.5,-384.75 440.5,-351.12 440.5,-351.12"/>
<polygon fill="#475569" stroke="#475569" points="442.95,-351.12 440.5,-344.12 438.05,-351.12 442.95,-351.12"/>
</g>
<!-- probability -->
<g id="node13" class="node">
<title>probability</title>
<path fill="#f1f5f9" stroke="#334155" d="M492,-267C492,-267 389,-267 389,-267 383,-267 377,-261 377,-255 377,-255 377,-243 377,-243 377,-237 383,-231 389,-231 389,-231 492,-231 492,-231 498,-231 504,-237 504,-243 504,-243 504,-255 504,-255 504,-261 498,-267 492,-267"/>
<text text-anchor="middle" x="440.5" y="-252.4" font-family="Helvetica,sans-Serif" font-size="12.00" fill="#0f172a">sigmoid probability</text>
<text text-anchor="middle" x="440.5" y="-239.4" font-family="Helvetica,sans-Serif" font-size="12.00" fill="#0f172a">p(AF given x, f)</text>
</g>
<!-- classifier&#45;&gt;probability -->
<g id="edge14" class="edge">
<title>classifier&#45;&gt;probability</title>
<path fill="none" stroke="#475569" d="M440.5,-307.75C440.5,-307.75 440.5,-274.12 440.5,-274.12"/>
<polygon fill="#475569" stroke="#475569" points="442.95,-274.12 440.5,-267.12 438.05,-274.12 442.95,-274.12"/>
</g>
<!-- threshold -->
<g id="node14" class="node">
<title>threshold</title>
<path fill="#f1f5f9" stroke="#334155" d="M522,-190C522,-190 359,-190 359,-190 353,-190 347,-184 347,-178 347,-178 347,-166 347,-166 347,-160 353,-154 359,-154 359,-154 522,-154 522,-154 528,-154 534,-160 534,-166 534,-166 534,-178 534,-178 534,-184 528,-190 522,-190"/>
<text text-anchor="middle" x="440.5" y="-175.4" font-family="Helvetica,sans-Serif" font-size="12.00" fill="#0f172a">Validation&#45;selected threshold</text>
<text text-anchor="middle" x="440.5" y="-162.4" font-family="Helvetica,sans-Serif" font-size="12.00" fill="#0f172a">segment AF probability</text>
</g>
<!-- probability&#45;&gt;threshold -->
<g id="edge15" class="edge">
<title>probability&#45;&gt;threshold</title>
<path fill="none" stroke="#475569" d="M440.5,-230.75C440.5,-230.75 440.5,-197.12 440.5,-197.12"/>
<polygon fill="#475569" stroke="#475569" points="442.95,-197.12 440.5,-190.12 438.05,-197.12 442.95,-197.12"/>
</g>
<!-- aggregation -->
<g id="node15" class="node">
<title>aggregation</title>
<path fill="#f1f5f9" stroke="#334155" d="M509,-113C509,-113 372,-113 372,-113 366,-113 360,-107 360,-101 360,-101 360,-89 360,-89 360,-83 366,-77 372,-77 372,-77 509,-77 509,-77 515,-77 521,-83 521,-89 521,-89 521,-101 521,-101 521,-107 515,-113 509,-113"/>
<text text-anchor="middle" x="440.5" y="-98.4" font-family="Helvetica,sans-Serif" font-size="12.00" fill="#0f172a">Quality&#45;weighted</text>
<text text-anchor="middle" x="440.5" y="-85.4" font-family="Helvetica,sans-Serif" font-size="12.00" fill="#0f172a">record&#45;level aggregation</text>
</g>
<!-- threshold&#45;&gt;aggregation -->
<g id="edge16" class="edge">
<title>threshold&#45;&gt;aggregation</title>
<path fill="none" stroke="#475569" d="M440.5,-153.75C440.5,-153.75 440.5,-120.12 440.5,-120.12"/>
<polygon fill="#475569" stroke="#475569" points="442.95,-120.12 440.5,-113.12 438.05,-120.12 442.95,-120.12"/>
</g>
<!-- decision -->
<g id="node16" class="node">
<title>decision</title>
<path fill="#e0e7ff" stroke="#334155" d="M483,-36C483,-36 398,-36 398,-36 392,-36 386,-30 386,-24 386,-24 386,-12 386,-12 386,-6 392,0 398,0 398,0 483,0 483,0 489,0 495,-6 495,-12 495,-12 495,-24 495,-24 495,-30 489,-36 483,-36"/>
<text text-anchor="middle" x="440.5" y="-21.4" font-family="Helvetica,sans-Serif" font-size="12.00" fill="#0f172a">Record&#45;level</text>
<text text-anchor="middle" x="440.5" y="-8.4" font-family="Helvetica,sans-Serif" font-size="12.00" fill="#0f172a">AF / SR decision</text>
</g>
<!-- aggregation&#45;&gt;decision -->
<g id="edge17" class="edge">
<title>aggregation&#45;&gt;decision</title>
<path fill="none" stroke="#475569" d="M440.5,-76.75C440.5,-76.75 440.5,-43.12 440.5,-43.12"/>
<polygon fill="#475569" stroke="#475569" points="442.95,-43.12 440.5,-36.12 438.05,-43.12 442.95,-43.12"/>
</g>
</g>
</svg>
